HIERARCHY
ROOT Hips
{
	OFFSET 0.000000 0.000000 0.000000
	CHANNELS 6 Xposition Yposition Zposition Zrotation Yrotation Xrotation 
	JOINT LHipJoint
	{
		OFFSET 0.000000 0.000000 0.000000
		CHANNELS 3 Zrotation Yrotation Xrotation
		JOINT LeftUpLeg
		{
			OFFSET 1.363060 -1.794630 0.839290
			CHANNELS 3 Zrotation Yrotation Xrotation
			JOINT LeftLeg
			{
				OFFSET 2.448110 -6.726130 0.000000
				CHANNELS 3 Zrotation Yrotation Xrotation
				JOINT LeftFoot
				{
					OFFSET 2.562200 -7.039590 0.000000
					CHANNELS 3 Zrotation Yrotation Xrotation
					JOINT LeftToeBase
					{
						OFFSET 0.157640 -0.433110 2.322550
						CHANNELS 3 Zrotation Yrotation Xrotation
						End Site
						{
							OFFSET 0.000000 0.000000 0.000000
						}
					}
				}
			}
		}
	}
	JOINT RHipJoint
	{
		OFFSET 0.000000 0.000000 0.000000
		CHANNELS 3 Zrotation Yrotation Xrotation
		JOINT RightUpLeg
		{
			OFFSET -1.305520 -1.794630 0.839290
			CHANNELS 3 Zrotation Yrotation Xrotation
			JOINT RightLeg
			{
				OFFSET -2.542530 -6.985550 0.000000
				CHANNELS 3 Zrotation Yrotation Xrotation
				JOINT RightFoot
				{
					OFFSET -2.568260 -7.056230 0.000000
					CHANNELS 3 Zrotation Yrotation Xrotation
					JOINT RightToeBase
					{
						OFFSET -0.164730 -0.452590 2.363150
						CHANNELS 3 Zrotation Yrotation Xrotation
						End Site
						{
							OFFSET 0.000000 0.000000 0.000000
						}
					}
				}
			}
		}
	}
	JOINT LowerBack
	{
		OFFSET 0.000000 0.000000 0.000000
		CHANNELS 3 Zrotation Yrotation Xrotation
		JOINT Spine
		{
			OFFSET 0.028270 2.035590 -0.193380
			CHANNELS 3 Zrotation Yrotation Xrotation
			JOINT Spine1
			{
				OFFSET 0.056720 2.048850 -0.042750
				CHANNELS 3 Zrotation Yrotation Xrotation
				JOINT Neck
				{
					OFFSET 0.000000 0.000000 0.000000
					CHANNELS 3 Zrotation Yrotation Xrotation
					JOINT Neck1
					{
						OFFSET -0.054170 1.746240 0.172020
						CHANNELS 3 Zrotation Yrotation Xrotation
						JOINT Head
						{
							OFFSET 0.104070 1.761360 -0.123970
							CHANNELS 3 Zrotation Yrotation Xrotation
							End Site
							{
								OFFSET 0.000000 0.000000 0.000000
							}
						}
					}
				}
				JOINT LeftShoulder
				{
					OFFSET 0.000000 0.000000 0.000000
					CHANNELS 3 Zrotation Yrotation Xrotation
					JOINT LeftArm
					{
						OFFSET 3.362410 1.200890 -0.311210
						CHANNELS 3 Zrotation Yrotation Xrotation
						JOINT LeftForeArm
						{
							OFFSET 4.983000 -0.000000 -0.000000
							CHANNELS 3 Zrotation Yrotation Xrotation
							JOINT LeftHand
							{
								OFFSET 3.483560 -0.000000 -0.000000
								CHANNELS 3 Zrotation Yrotation Xrotation
								JOINT LeftFingerBase
								{
									OFFSET 0.000000 0.000000 0.000000
									CHANNELS 3 Zrotation Yrotation Xrotation
									JOINT LeftHandIndex1
									{
										OFFSET 0.715260 -0.000000 -0.000000
										CHANNELS 3 Zrotation Yrotation Xrotation
										End Site
										{
											OFFSET 0.000000 0.000000 0.000000
										}
									}
								}
								JOINT LThumb
								{
									OFFSET 0.000000 0.000000 0.000000
									CHANNELS 3 Zrotation Yrotation Xrotation
									End Site
									{
										OFFSET 0.000000 0.000000 0.000000
									}
								}
							}
						}
					}
				}
				JOINT RightShoulder
				{
					OFFSET 0.000000 0.000000 0.000000
					CHANNELS 3 Zrotation Yrotation Xrotation
					JOINT RightArm
					{
						OFFSET -3.136600 1.374050 -0.404650
						CHANNELS 3 Zrotation Yrotation Xrotation
						JOINT RightForeArm
						{
							OFFSET -5.241900 -0.000000 -0.000000
							CHANNELS 3 Zrotation Yrotation Xrotation
							JOINT RightHand
							{
								OFFSET -3.444170 -0.000000 -0.000000
								CHANNELS 3 Zrotation Yrotation Xrotation
								JOINT RightFingerBase
								{
									OFFSET 0.000000 0.000000 0.000000
									CHANNELS 3 Zrotation Yrotation Xrotation
									JOINT RightHandIndex1
									{
										OFFSET -0.622530 -0.000000 -0.000000
										CHANNELS 3 Zrotation Yrotation Xrotation
										End Site
										{
											OFFSET 0.000000 0.000000 0.000000
										}
									}
								}
								JOINT RThumb
								{
									OFFSET 0.000000 0.000000 0.000000
									CHANNELS 3 Zrotation Yrotation Xrotation
									End Site
									{
										OFFSET 0.000000 0.000000 0.000000
									}
								}
							}
						}
					}
				}
			}
		}
	}
}
MOTION
Frames: 9
Frame Time: 0.008333
11.231370 17.935853 -45.511958 -1.054516 -1.892218 0.227714 0.294771 3.584347 1.657968 -20.641116 -23.529352 -1.159185 -2.312162 8.490796 24.580189 -4.615483 16.318966 -12.817987 0.195200 -2.845400 -7.848500 -4.502281 -3.638533 0.629981 26.637691 21.822865 2.075671 2.010562 -7.711629 24.671284 6.212240 -25.422617 -19.691364 -0.059600 1.575100 -4.332800 2.761215 0.149284 5.300127 1.158597 0.424549 1.648985 -4.238055 -0.016533 -12.842917 -10.472674 -7.491835 -14.718684 12.792182 -10.018728 22.636863 2.155200 -3.801900 7.728300 -1.687699 -9.982613 1.695027 -90.058851 9.441031 26.483303 24.804457 -24.572120 -6.636998 1.668967 0.763564 9.962797 1.579867 -36.191932 -0.058400 -7.125000 0.000000 0.000000 -17.826300 -5.728100 20.489200 0.691213 10.983883 2.895047 87.193628 -7.453383 52.669405 -21.304902 24.203739 -5.988171 0.999596 -0.076977 11.243051 -3.489037 -53.209993 3.601000 7.125000 0.000000 0.000000 71.112900 -73.010200 -53.596700 
11.233236 17.934570 -45.512074 -1.011670 -1.926959 0.229406 0.290532 3.585008 1.650954 -20.684903 -23.511179 -1.155926 -2.314278 8.507656 24.614999 -4.722857 16.637564 -12.987537 0.287000 -3.445200 -9.520900 -4.513536 -3.639549 0.616544 26.645135 21.974888 2.171833 2.020679 -7.698134 24.624177 6.348819 -25.828823 -19.745953 -0.077800 1.799100 -4.950800 2.767700 0.191124 5.489145 1.027604 0.488904 1.529193 -4.243193 0.013066 -12.964453 -10.312439 -7.487047 -14.809139 12.727079 -10.014931 22.717233 2.116300 -3.790500 7.753300 -1.688895 -9.959901 1.698963 -90.143401 9.548272 26.167727 24.786909 -24.541935 -6.611919 1.649091 0.775828 10.222850 2.489187 -36.019638 -0.622900 -7.125000 0.000000 0.000000 -17.342400 -5.677400 19.864700 0.708028 10.985694 2.901805 87.360379 -7.636965 52.190505 -21.359696 24.251341 -5.978818 1.004039 -0.081729 11.459580 -3.593933 -52.486375 3.654100 7.125000 0.000000 0.000000 68.796300 -72.828400 -51.263400 
11.237202 17.933403 -45.505659 -1.080462 -2.026685 0.253596 0.306252 3.579784 1.630073 -20.656115 -23.439218 -1.181978 -2.306456 8.528211 24.662803 -4.808659 16.866018 -12.994832 0.361200 -3.861100 -10.686100 -4.513066 -3.635834 0.593704 26.695191 21.970728 2.206642 2.031382 -7.679237 24.564678 6.339969 -25.785235 -19.664819 -0.079900 1.823900 -5.019200 2.792910 0.251410 5.756503 1.098171 0.590979 1.221667 -4.290874 0.049666 -13.127422 -10.222450 -7.455255 -14.811120 12.665414 -9.976011 22.848980 2.091400 -3.763400 7.776300 -1.704534 -9.907723 1.712043 -90.547297 10.225194 25.604170 25.090040 -24.889468 -6.761427 1.634133 0.768906 10.723754 2.888083 -35.967221 -0.876400 -7.125000 0.000000 0.000000 -17.124200 -5.676100 19.590800 0.708689 10.973088 2.926980 87.458070 -7.934819 51.807240 -21.385351 24.283245 -5.992723 0.999352 -0.080546 11.738365 -2.926405 -52.654331 3.126800 7.125000 0.000000 0.000000 69.733600 -72.645900 -51.905900 
11.239185 17.930954 -45.503793 -1.124876 -2.008477 0.133829 0.327876 3.601927 1.688142 -20.650676 -23.386250 -1.148557 -2.291634 8.534724 24.711415 -4.810183 16.858779 -12.949418 0.379100 -3.954500 -10.948800 -4.492643 -3.658013 0.655788 26.725230 21.892048 2.281576 2.034930 -7.656728 24.534215 6.329341 -25.749105 -19.654030 -0.086800 1.900100 -5.229700 2.619169 0.284937 5.266875 1.371809 0.597910 1.968996 -4.203861 0.077847 -12.834443 -10.222413 -7.358438 -14.888865 12.718446 -9.831987 22.472314 2.107800 -3.709200 7.679800 -1.716089 -9.965303 1.668075 -90.202222 9.550292 26.111272 24.876564 -24.631774 -6.649543 1.625760 0.791427 10.184470 3.204842 -36.011671 -1.070500 -7.125000 0.000000 0.000000 -16.962100 -5.761400 19.411200 0.647154 10.988586 2.887434 87.273524 -7.645135 51.553917 -21.390383 24.307231 -6.026737 0.993659 -0.070012 11.733868 -1.333061 -53.504671 1.873200 7.125000 0.000000 0.000000 73.266900 -72.333700 -54.806400 
11.244434 17.937486 -45.497378 -1.153142 -2.150838 0.352227 0.309593 3.568920 1.651850 -20.569898 -23.458596 -1.308317 -2.297095 8.545337 24.715276 -4.821778 16.905824 -13.074706 0.367800 -3.895800 -10.783700 -4.489736 -3.635797 0.639246 26.640060 21.960847 2.073979 2.047038 -7.653355 24.466221 6.318390 -25.662806 -19.495532 -0.098600 2.025300 -5.575600 2.730278 0.353255 5.060979 1.299153 0.685007 1.819586 -4.273696 0.109115 -12.686353 -10.213500 -7.235254 -14.802336 12.892699 -9.704063 22.302532 2.162600 -3.641500 7.615300 -1.708865 -9.988150 1.679280 -90.062960 9.566633 26.556684 24.903403 -24.608363 -6.619308 1.579431 0.804473 10.528381 4.798580 -35.119469 -2.025300 -7.125000 0.000000 0.000000 -16.069100 -5.111000 18.137200 0.658762 10.985774 2.892146 87.343235 -7.689990 51.170231 -21.453018 24.378379 -6.059150 0.990200 -0.059073 11.468696 -0.843515 -53.714613 1.479000 7.125000 0.000000 0.000000 74.187200 -72.217500 -55.532600 
11.249100 17.932470 -45.491429 -1.242857 -2.296863 0.256357 0.334597 3.588645 1.669533 -20.583951 -23.471095 -1.195358 -2.300047 8.543837 24.731020 -4.905957 17.154914 -13.240169 0.420000 -4.159400 -11.525600 -4.475782 -3.650064 0.656191 26.750414 22.071043 2.235989 2.051495 -7.636353 24.437088 6.290963 -25.586719 -19.469949 -0.103700 2.076500 -5.717000 2.655344 0.424558 5.053915 1.574672 0.780568 1.955276 -4.279734 0.157553 -12.684742 -10.348719 -7.172046 -14.688943 12.997345 -9.629046 22.161624 2.214700 -3.613200 7.558700 -1.731631 -9.989773 1.659041 -90.221916 9.864826 27.624567 25.164307 -24.767363 -6.635608 1.428923 0.837703 11.890653 9.067197 -32.151520 -4.348600 -7.125000 0.000000 0.000000 -13.528200 -2.848900 14.588500 0.630814 10.974504 2.886176 87.259764 -7.737470 50.889798 -21.559537 24.482545 -6.073645 0.996853 -0.063271 11.117816 -1.919295 -53.020740 2.332700 7.125000 0.000000 0.000000 71.459200 -72.403100 -53.207100 
11.254582 17.932703 -45.486063 -1.309056 -2.272808 0.373984 0.349992 3.575137 1.646309 -20.536524 -23.561746 -1.261391 -2.305185 8.539710 24.704918 -4.984095 17.352361 -13.230059 0.470300 -4.398500 -12.200500 -4.448779 -3.642559 0.663248 26.757163 22.199694 2.177605 2.062729 -7.635295 24.397702 6.325636 -25.698685 -19.503873 -0.097800 2.017000 -5.552800 2.524855 0.456974 4.857537 1.886563 0.808571 1.968374 -4.237895 0.176302 -12.556693 -10.428265 -7.172268 -14.617626 12.936227 -9.608886 22.051904 2.205400 -3.620100 7.519000 -1.767467 -10.000465 1.651187 -90.345390 9.877643 27.607898 25.215733 -24.818746 -6.661890 1.427527 0.835457 11.933132 9.067433 -32.111391 -4.344800 -7.125000 0.000000 0.000000 -13.524700 -2.808300 14.575200 0.603249 10.980013 2.890028 87.120780 -7.766025 50.721534 -21.594122 24.500851 -6.066259 1.003352 -0.073268 11.040215 -2.721380 -52.519825 2.961200 7.125000 0.000000 0.000000 69.433500 -72.530900 -51.498300 
11.259364 17.938652 -45.483964 -1.339705 -2.315085 0.508237 0.334261 3.558971 1.640132 -20.451442 -23.571274 -1.366819 -2.306939 8.535980 24.689371 -4.894601 17.104578 -13.208157 0.378900 -3.953000 -10.944600 -4.451550 -3.627811 0.656651 26.738490 22.291123 2.068134 2.069622 -7.640352 24.374286 6.367963 -25.821190 -19.509852 -0.092800 1.964200 -5.406800 2.663237 0.478956 4.702805 1.788209 0.838998 2.001271 -4.304721 0.181497 -12.455190 -10.345067 -7.166074 -14.743643 12.951824 -9.598474 22.002967 2.193700 -3.609100 7.524100 -1.756099 -10.012499 1.657051 -90.264617 9.860620 27.534249 25.210669 -24.820625 -6.669205 1.425441 0.847436 12.024987 9.395091 -32.426181 -4.571300 -7.125000 0.000000 0.000000 -13.362600 -3.175700 14.472800 0.607133 10.984086 2.883449 87.187830 -7.708511 50.509520 -21.577928 24.476914 -6.058623 1.003890 -0.070141 11.030038 -2.588105 -52.556033 2.856700 7.125000 0.000000 0.000000 69.633000 -72.496500 -51.640100 
11.262397 17.939352 -45.488629 -1.351205 -2.236783 0.408381 0.343698 3.575810 1.659522 -20.469448 -23.575040 -1.294251 -2.302473 8.530428 24.695958 -4.782364 16.805187 -13.182361 0.305200 -3.551800 -9.819000 -4.445717 -3.635249 0.667039 26.774609 22.279115 2.167137 2.069892 -7.634397 24.384084 6.375390 -25.878013 -19.623372 -0.090700 1.942700 -5.347300 2.649190 0.410919 4.910241 1.867889 0.761742 2.111111 -4.287883 0.143849 -12.600349 -10.300124 -7.108594 -15.008917 12.875924 -9.483511 22.166352 2.176200 -3.544800 7.596800 -1.765674 -9.989022 1.649222 -90.311946 9.812128 27.139154 25.130699 -24.753460 -6.641171 1.443740 0.847384 11.916870 9.035594 -32.855959 -4.406800 -7.125000 0.000000 0.000000 -13.597300 -3.543100 14.824800 0.592563 10.990781 2.889262 87.114052 -7.665090 50.534526 -21.573260 24.485073 -6.067881 1.000138 -0.065499 10.841829 -2.435705 -52.848421 2.742800 7.125000 0.000000 0.000000 70.613800 -72.532700 -52.580200 
